<svg id="Layer_1" enable-background="new 0 0 100 100" viewBox="0 0 100 100" xmlns="http://www.w3.org/2000/svg"><path d="m97.4999008 38.7650146c.0167542 3.5919418-2.0823441 6.8572044-5.3570633 8.3332024l-10.6545944 4.8213577-5.9522934 2.6785316-16.9045029 7.6784515c-5.4527893 2.5398483-11.7493324 2.5398483-17.2021217 0l-16.9640274-7.6784515-5.9522896-2.6785316-5.9522896-2.7380524v25.7138939c.8590546.5394745 1.3771734 1.4856033 1.3690271 2.4999695v6.1308517c.0159254 1.6277542-1.29072 2.960228-2.9184771 2.9761505-.0192223.0001984-.0384455.0001984-.0576677 0h-2.7380513c-1.6276231.0160522-2.9600887-1.2903748-2.9761448-2.9179993-.0001912-.0193787-.0001912-.038765 0-.0581436v-6.1308594c-.0080194-1.014328.5100675-1.9603958 1.3690271-2.4999619v-27.3805311c-.0039382-.3454666.0566206-.6886368.1785684-1.0118904-4.2719159-2.6714935-5.5693121-8.3002434-2.8978143-12.5721626.96418-1.5417938 2.3671212-2.7602634 4.0287499-3.4990177l33.5113969-15.1783429c5.4615555-2.4999352 11.7405624-2.4999352 17.2021179 0l33.5114021 15.1783428c3.2746049 1.47612 5.3736421 4.7413006 5.3570481 8.3331928zm-36.4280166 28.9281312c-7.0013542 3.2541199-15.0816422 3.2541199-22.0829964 0l-20.4758797-9.2260551v7.6189308c.0132256 4.6368408 2.1658173 9.0080261 5.8332443 11.8453598 15.16259 11.5867844 36.2056732 11.5867844 51.3682632 0 3.651947-2.8437119 5.7834244-7.2165298 5.7737274-11.8450623v-7.6784515l-3.5118561 1.6071205z"/></svg>